<svg id="Capa_1" enable-background="new 0 0 511.965 511.965" height="512" viewBox="0 0 511.965 511.965" width="512" xmlns="http://www.w3.org/2000/svg"><g><g><path d="m496.913 177.864-56.954-44.174v-91.356c0-5.523-4.478-10-10-10h-61.276c-5.522 0-10 4.477-10 10v28.316l-78.88-61.18c-14.025-10.878-33.615-10.876-47.626-.012l-82.815 63.973c-4.371 3.376-5.177 9.656-1.801 14.027 3.376 4.37 9.656 5.177 14.027 1.801l82.831-63.985c6.809-5.279 16.319-5.279 23.126 0l217.11 168.394c8.241 6.392 9.751 18.306 3.366 26.558-3.092 3.996-7.552 6.546-12.558 7.182-4.992.632-9.948-.718-13.935-3.811l-199.417-154.673c-3.606-2.797-8.65-2.798-12.258 0l-199.417 154.673c-3.341 2.592-7.332 3.961-11.54 3.961h-.002c-5.896 0-11.345-2.673-14.95-7.332-6.385-8.253-4.875-20.167 3.358-26.552l63.029-48.782c4.368-3.38 5.168-9.661 1.788-14.029-3.38-4.367-9.66-5.168-14.029-1.788l-63.037 48.789c-16.946 13.142-20.053 37.636-6.928 54.601 7.421 9.591 18.635 15.092 30.767 15.093h.003c6.054 0 11.886-1.37 17.194-4.007v85.95h-7.201c-5.01 0-9.247 3.707-9.912 8.672-.67 5.001-1.917 14.31-26.814 14.31-5.523 0-10 4.477-10 10v88.236c0 19.806 11.705 37.78 29.82 45.789l29.901 13.221c1.279.594 2.704.926 4.206.926h379.787c5.522 0 10-4.477 10-10v-257.106c5.321 2.642 11.158 4.015 17.136 4.015 1.648 0 3.309-.104 4.97-.315 10.311-1.309 19.493-6.559 25.858-14.784 13.125-16.964 10.017-41.458-6.927-54.601zm-118.23-125.53h41.276v65.843l-41.276-32.015zm-356.521 398.385v-78.757c21.051-2.328 30.512-12.112 34.472-22.46h18.91c3.96 10.349 13.421 20.132 34.472 22.46v78.757c0 11.894-7.029 22.687-17.908 27.497l-26.02 11.504-26.02-11.504c-10.877-4.81-17.906-15.603-17.906-27.497zm242.375 39.935v-17.376c0-5.523-4.478-10-10-10h-3.349c-31.135 0-53.733-20.72-53.733-49.268l.073-20.99c0-3.166-1.499-6.144-4.041-8.03s-5.827-2.458-8.857-1.541c-1.226.372-2.507.56-3.807.56-3.709 0-7.25-1.578-9.716-4.33-2.463-2.749-3.594-6.308-3.186-10.021.127-1.155.424-2.29.873-3.37h11.507c21.69 0 39.336-17.609 39.336-39.253v-8.122c11.284-3.52 19.497-14.049 19.497-26.457 0-13.393-9.568-24.597-22.239-27.16 11.197-10.42 26.114-16.479 41.804-16.479h40.966c15.677 0 30.591 6.056 41.789 16.468-12.7 2.541-22.297 13.758-22.297 27.171 0 12.408 8.213 22.938 19.498 26.457v8.122c0 21.644 17.646 39.253 39.336 39.253h11.506c.449 1.079.746 2.214.874 3.367.409 3.713-.722 7.272-3.185 10.022-2.466 2.753-6.008 4.332-9.718 4.332-1.3 0-2.581-.188-3.807-.56-3.034-.918-6.315-.346-8.856 1.541-2.542 1.886-4.041 4.865-4.041 8.03l.073 20.99c0 28.548-22.598 49.268-53.732 49.268h-5.967c-5.522 0-10 4.477-10 10v17.376zm-74.396-205.813c.468 0 .928-.033 1.379-.096h19.854c4.279 0 7.761 3.459 7.761 7.711 0 4.251-3.481 7.71-7.761 7.71h-1.736c-5.523 0-10 4.477-10 10v16.869c0 10.616-8.674 19.253-19.336 19.253h-5.502v-46.178c0-8.42 6.882-15.269 15.341-15.269zm158.515 15.325h-1.736c-4.28 0-7.762-3.459-7.762-7.71 0-4.252 3.481-7.711 7.762-7.711h19.841c.455.063.92.096 1.393.096 8.459 0 15.341 6.85 15.341 15.269v46.178h-5.502c-10.662 0-19.336-8.637-19.336-19.253v-16.869c-.001-5.523-4.478-10-10.001-10zm-37.516 190.488v-7.469c40.014-1.837 69.699-30.959 69.699-69.176l-.073-10.167c8.169-.819 15.802-4.662 21.319-10.823 6.217-6.94 9.193-16.256 8.166-25.562-.66-5.977-3.029-11.721-6.757-16.492v-50.855c0-18.899-14.973-34.374-33.702-35.231-.533-.088-1.08-.134-1.639-.134h-1.025c-14.995-22.288-40.37-35.928-67.461-35.928h-40.966c-27.104 0-52.467 13.636-67.462 35.928h-1.098c-.558 0-1.105.046-1.639.134-18.729.857-33.702 16.333-33.702 35.231v50.857c-3.731 4.773-6.099 10.515-6.758 16.502-1.024 9.302 1.954 18.617 8.169 25.555 5.518 6.158 13.15 10 21.316 10.819v.299c-.048.398-.073 9.867-.073 9.867 0 37.378 28.399 66.056 67.082 69.016v7.629h-134.392c12.336-9.332 19.872-24.043 19.872-39.936v-88.236c0-5.523-4.477-10-10-10-24.898 0-26.145-9.309-26.814-14.31-.665-4.965-4.902-8.672-9.912-8.672h-7.201v-100.49l179.893-139.529 179.894 139.529v261.643h-124.736z"/><path d="m110.462 113.103c1.611 3.868 5.544 6.355 9.729 6.158 4.119-.195 7.762-3.01 9.021-6.929 1.274-3.967-.105-8.457-3.428-10.989-3.381-2.576-8.099-2.715-11.642-.379-3.941 2.598-5.459 7.799-3.68 12.139z"/><path d="m73.842 439.515 20.148-24.733c3.488-4.282 2.845-10.581-1.437-14.069-4.282-3.489-10.582-2.845-14.069 1.437l-13.63 16.732-6.043-5.248c-4.171-3.622-10.487-3.176-14.107.994-3.621 4.17-3.176 10.486.994 14.107l13.835 12.015c1.826 1.586 4.157 2.45 6.556 2.45.286 0 .573-.012.86-.037 2.696-.234 5.183-1.55 6.893-3.648z"/><path d="m253.552 363.356c0-5.523-4.477-10-10-10s-10 4.477-10 10v9.061c0 5.523 4.477 10 10 10s10-4.477 10-10z"/><path d="m314.742 382.417c5.522 0 10-4.477 10-10v-9.061c0-5.523-4.478-10-10-10s-10 4.477-10 10v9.061c0 5.523 4.478 10 10 10z"/><path d="m301.867 413.706c-3.906-3.904-10.236-3.904-14.143 0-2.291 2.292-5.337 3.553-8.577 3.553-3.241 0-6.287-1.262-8.578-3.553-3.906-3.904-10.236-3.904-14.143 0-3.905 3.905-3.905 10.237 0 14.143 6.264 6.264 14.492 9.396 22.721 9.396 8.228 0 16.456-3.132 22.72-9.396 3.905-3.906 3.905-10.238 0-14.143z"/></g></g></svg>