<svg id="Capa_1" enable-background="new 0 0 512 512" height="512" viewBox="0 0 512 512" width="512" xmlns="http://www.w3.org/2000/svg"><g><g><g><path d="m211.195 219.405c5.523 0 10-4.477 10-10v-11.032c0-5.523-4.477-10-10-10s-10 4.477-10 10v11.032c0 5.523 4.477 10 10 10z"/><path d="m297.627 219.405c5.523 0 10-4.477 10-10v-11.032c0-5.523-4.477-10-10-10s-10 4.477-10 10v11.032c0 5.523 4.477 10 10 10z"/><path d="m363.999 370.554h-71.297v-28.437c47.637-1.989 83.034-36.603 83.034-82.071v-10.533c0-.453-.031-.898-.089-1.335v-2.531c10.092-.497 19.629-5.017 26.4-12.575 6.117-6.828 9.511-15.658 9.635-24.775.006-.139.009-.278.009-.418v-80.147c0-32.127-12.645-64.413-34.693-88.577-23.037-25.25-53.369-39.155-85.408-39.155-32.22 0-62.505 12.47-85.146 34.655-13.463-20.026-35.943-28.569-59.124-22.316-28.489 7.684-49.125 34.319-50.184 64.769-.025.702-.021 1.406-.012 2.112l.006 128.66c0 .136.003.272.009.407.122 9.123 3.517 17.959 9.639 24.79 6.771 7.555 16.306 12.074 26.397 12.571l-.089 14.399c0 45.468 35.397 80.083 83.034 82.071v28.437h-68.12c-41.908 0-76.002 34.094-76.002 76.002v55.443c0 5.523 4.477 10 10 10h128.795c5.523 0 10-4.477 10-10s-4.477-10-10-10h-118.794v-45.444c0-30.879 25.123-56.002 56.002-56.002h49.012c4.386 28.546 29.167 50.479 58.987 50.479s54.601-21.933 58.987-50.479h49.012c30.879 0 56.002 25.123 56.002 56.002v45.444h-118.794c-5.523 0-10 4.477-10 10s4.477 10 10 10h128.794c5.523 0 10-4.477 10-10v-55.444c0-41.908-34.094-76.002-76.002-76.002zm-246.874-292.749c.882-25.39 18.971-41.724 35.404-46.156 15.257-4.116 28.974 1.265 37.716 14.769l4.715 10.078c1.467 3.136 4.452 5.29 7.891 5.693 3.436.403 6.84-.999 8.995-3.709 19.439-24.455 48.504-38.48 79.744-38.48 53.325 0 100.102 50.342 100.102 107.732v46.763c-4.362-2.339-9.231-3.848-14.391-4.316-.552-.05-1.104-.088-1.654-.115v-46.834c0-5.523-4.477-10-10-10s-10 4.477-10 10v12.208c-8.157 8.743-20.728 12.839-39.207 12.839-14.079 0-25.921-10.38-35.199-30.853-6.377-14.074-20.524-23.168-36.119-23.168-15.142 0-29.215 8.928-35.853 22.745-8.764 18.243-17.575 26.026-29.462 26.026-13.42 0-22.084-2.734-26.632-4.737v-15.06c0-5.523-4.477-10-10-10s-10 4.477-10 10v46.834c-.553.027-1.107.065-1.662.116-5.157.469-10.023 1.978-14.383 4.316v-94.565c0-.315-.003-.63-.007-.944-.004-.394-.012-.787.002-1.182zm4.548 141.923c-3.423-3.819-4.996-8.764-4.429-13.924.9-8.202 7.814-14.955 16.083-15.707 2.381-.216 4.716.017 6.944.693 3.03.92 6.317.35 8.861-1.536s4.044-4.866 4.044-8.033v-21.695c6.666 1.948 15.475 3.5 26.632 3.5 29.54 0 43.05-28.124 47.489-37.365 3.38-7.035 10.21-11.406 17.904-11.406 7.683 0 14.679 4.484 17.824 11.423 15.955 35.208 37.854 42.598 53.416 42.598 15.749 0 28.743-2.673 39.207-8.109v21.055c0 3.167 1.5 6.146 4.043 8.033 2.544 1.886 5.832 2.455 8.861 1.536 2.229-.677 4.566-.909 6.941-.694 8.268.75 15.183 7.501 16.085 15.703.568 5.161-1.004 10.107-4.427 13.927-3.397 3.792-8.269 5.967-13.365 5.967-1.787 0-3.547-.26-5.233-.771-3.03-.92-6.318-.352-8.862 1.535-2.544 1.886-4.044 4.866-4.044 8.033v5.023h-36.936c-14.106-9.761-31.122-15.103-48.294-15.103h-28.834c-17.173 0-34.188 5.341-48.294 15.103h-40.113v-5.023c0-3.167-1.5-6.147-4.044-8.033s-5.833-2.455-8.862-1.535c-1.686.512-3.446.771-5.233.771-5.096-.001-9.967-2.175-13.364-5.966zm31.414 40.318v-.533h43.435c2.175 0 4.291-.709 6.026-2.02 11.173-8.437 25.036-13.083 39.036-13.083h28.834c14 0 27.863 4.646 39.036 13.083 1.735 1.311 3.851 2.02 6.026 2.02h40.257v.533c0 35.438-28.967 62.162-67.379 62.162h-67.891c-38.413 0-67.38-26.724-67.38-62.162zm102.913 160.987c-18.751 0-34.506-13.028-38.626-30.479h8.747c5.523 0 10-4.477 10-10v-38.346h36.581v38.346c0 5.523 4.477 10 10 10h11.924c-4.12 17.451-19.875 30.479-38.626 30.479z"/><path d="m265.42 498.18c-1.603-3.91-5.676-6.437-9.889-6.147-4.062.279-7.612 3.032-8.861 6.912-1.306 4.056.177 8.644 3.637 11.144 3.294 2.381 7.792 2.524 11.228.352 4.048-2.561 5.729-7.835 3.885-12.261z"/></g></g></g></svg>